<svg width="98" height="65" viewBox="0 0 98 65" fill="none" xmlns="http://www.w3.org/2000/svg">
<path d="M9.11084 2.43009V14.99C9.11084 15.2075 9.19723 15.416 9.35101 15.5698C9.50478 15.7236 9.71334 15.81 9.93082 15.81H85.7069C85.9243 15.81 86.1329 15.7236 86.2867 15.5698C86.4404 15.416 86.5268 15.2075 86.5268 14.99V2.43009H84.8608V1.05044C84.8608 0.832974 84.7745 0.624411 84.6207 0.470636C84.4669 0.316861 84.2583 0.230469 84.0409 0.230469C83.8234 0.230469 83.6148 0.316861 83.4611 0.470636C83.3073 0.624411 83.2209 0.832974 83.2209 1.05044V2.43009H9.11084Z" fill="#0ED4FF"/>
<path d="M39.9575 5.24002C39.9575 4.89483 40.0946 4.56378 40.3387 4.31969C40.5828 4.0756 40.9139 3.93848 41.2591 3.93848H68.6696C69.0148 3.93848 69.3459 4.0756 69.59 4.31969C69.8341 4.56378 69.9712 4.89483 69.9712 5.24002C69.9712 5.58521 69.8341 5.91627 69.59 6.16036C69.3459 6.40444 69.0148 6.54157 68.6696 6.54157H41.233C40.8924 6.53475 40.568 6.39462 40.3295 6.15127C40.091 5.90792 39.9575 5.58075 39.9575 5.24002Z" fill="#C0FF0E"/>
<path d="M90.4315 21.0154C90.7766 21.0154 91.1077 20.8783 91.3518 20.6342C91.5959 20.3901 91.733 20.0591 91.733 19.7139V3.71788C91.733 3.37269 91.5959 3.04163 91.3518 2.79755C91.1077 2.55346 90.7766 2.41633 90.4315 2.41633H87.3468V14.6118C87.3485 14.9212 87.2893 15.2279 87.1725 15.5143C87.0556 15.8008 86.8836 16.0615 86.666 16.2815C86.4485 16.5014 86.1897 16.6764 85.9045 16.7963C85.6194 16.9163 85.3134 16.9789 85.004 16.9806H10.6467C10.0241 16.9738 9.42961 16.7208 8.99306 16.2769C8.5565 15.833 8.3134 15.2344 8.31688 14.6118V2.41633H7.93943V1.92175C7.96044 1.67742 7.93046 1.43138 7.85137 1.19925C7.77228 0.967115 7.64582 0.753948 7.48001 0.573265C7.31419 0.392581 7.11264 0.248324 6.88814 0.14964C6.66363 0.0509562 6.42107 0 6.17584 0C5.9306 0 5.68804 0.0509562 5.46354 0.14964C5.23903 0.248324 5.03749 0.392581 4.87167 0.573265C4.70586 0.753948 4.5794 0.967115 4.50031 1.19925C4.42122 1.43138 4.39123 1.67742 4.41224 1.92175V2.41633H2.39485C2.11434 2.42354 1.84368 2.52121 1.62321 2.69478C1.40274 2.86834 1.24426 3.10851 1.17139 3.37948H0.780926C0.68242 3.37423 0.583858 3.38868 0.491004 3.42199C0.39815 3.45529 0.312869 3.50677 0.240152 3.57343C0.167435 3.64009 0.108745 3.72058 0.0675092 3.81019C0.0262735 3.8998 0.00332156 3.99674 0 4.09533V13.2062C0 13.4029 0.0781637 13.5916 0.217294 13.7307C0.356423 13.8699 0.545122 13.948 0.741881 13.948H1.05425V19.7139C1.05425 20.0591 1.19138 20.3901 1.43547 20.6342C1.67956 20.8783 2.01061 21.0154 2.3558 21.0154H34.7122C34.7122 21.0154 34.7122 21.0935 34.7122 21.1326V30.4907C34.7157 32.1189 35.364 33.6795 36.5154 34.8309C37.6667 35.9822 39.2273 36.6306 40.8555 36.634H54.9513C56.2301 36.629 57.4755 36.225 58.5137 35.4784C59.552 34.7318 60.3314 33.6797 60.7432 32.469L69.9451 63.5109C70.065 63.8695 70.2885 64.1845 70.5874 64.4161C70.8862 64.6478 71.247 64.7857 71.6241 64.8125H96.5617C97.2646 64.8125 97.4598 64.2528 97.4598 63.5109C97.4598 50.3913 75.3205 27.4451 90.4315 21.0154ZM78.8998 27.0546C78.0422 25.7168 76.8954 24.5885 75.5439 23.7528C74.1923 22.917 72.6705 22.3953 71.0905 22.2259H49.9534C50.2135 25.5342 49.151 28.8106 46.9988 31.3367C46.1528 32.2087 48.1052 32.8074 49.9013 32.0786C51.8955 31.2966 53.6658 30.0346 55.0553 28.4044C56.4449 26.7742 57.4105 24.8263 57.8668 22.7335L59.5718 28.4603V30.4516C59.5718 31.6771 59.085 32.8523 58.2185 33.7188C57.352 34.5853 56.1767 35.0721 54.9513 35.0721H40.8555C40.2483 35.0739 39.6467 34.9555 39.0853 34.7239C38.524 34.4923 38.0139 34.1521 37.5845 33.7227C37.1551 33.2933 36.8149 32.7832 36.5833 32.2219C36.3517 31.6605 36.2333 31.0589 36.2351 30.4516V21.1326C36.2351 21.1326 36.2351 21.0545 36.2351 21.0154H73.3682C74.8344 21.1263 76.2427 21.6343 77.4419 22.485C78.6412 23.3357 79.5861 24.497 80.1753 25.8442L84.0799 35.3194L78.8998 27.0546Z" fill="#0ED4FF"/>
</svg>
