<svg width="99" height="99" viewBox="0 0 99 99" fill="none" xmlns="http://www.w3.org/2000/svg">
<path fill-rule="evenodd" clip-rule="evenodd" d="M35.6482 1.95522C26.0403 4.73858 17.4986 10.3432 11.1389 18.0368C4.77919 25.7305 0.897193 35.1556 0 45.0809H22.7194C24.0365 29.9778 28.4334 15.3009 35.6411 1.94815L35.6482 1.95522ZM22.7194 53.9196H0C0.895318 63.8453 4.77565 73.2713 11.1341 80.9663C17.4925 88.6612 26.0335 94.2674 35.6411 97.0524C28.4334 83.6996 24.0365 69.0228 22.7194 53.9196ZM47.0293 98.9404C38.4157 85.3463 33.1377 69.9231 31.6226 53.9196H67.3703C65.8552 69.9231 60.5772 85.3463 51.9636 98.9404C50.3198 99.0199 48.6731 99.0199 47.0293 98.9404ZM63.3589 97.0453C72.9655 94.2608 81.5057 88.6557 87.864 80.9621C94.2224 73.2685 98.1033 63.8441 99 53.9196H76.2806C74.9635 69.0228 70.5666 83.6996 63.3589 97.0524V97.0453ZM76.2806 45.0809H99C98.1047 35.1553 94.2243 25.7293 87.8659 18.0343C81.5075 10.3393 72.9665 4.73315 63.3589 1.94815C70.5668 15.3009 74.9637 29.9777 76.2806 45.0809ZM47.0293 0.0602047C48.6754 -0.0200682 50.3246 -0.0200682 51.9707 0.0602047C60.5818 13.6549 65.8573 29.078 67.3703 45.0809H31.6297C33.1704 28.9804 38.4598 13.5445 47.0293 0.0602047Z" fill="white"/>
</svg>
