<svg width="87" height="82" viewBox="0 0 87 82" fill="none" xmlns="http://www.w3.org/2000/svg">
<path d="M39.0466 79.8237C31.5814 79.8237 24.2838 77.61 18.0767 73.4625C11.8696 69.3151 7.03175 63.4201 4.17493 56.5232C1.31811 49.6262 0.570639 42.037 2.02703 34.7152C3.48343 27.3934 7.07827 20.6679 12.357 15.3892C17.6357 10.1105 24.3612 6.51565 31.683 5.05926C39.0047 3.60287 46.594 4.35034 53.4909 7.20716C60.3879 10.064 66.2829 14.9018 70.4303 21.1089C74.5778 27.316 76.7915 34.6136 76.7915 42.0788C76.7674 52.082 72.783 61.6686 65.7097 68.7419C58.6364 75.8152 49.0498 79.7996 39.0466 79.8237Z" fill="#C0FF0E"/>
<path d="M39.0464 5.50604C46.2831 5.50604 53.3572 7.65213 59.3741 11.6729C65.391 15.6936 70.0804 21.4084 72.8491 28.0945C75.6179 34.7805 76.3417 42.1375 74.9289 49.235C73.5162 56.3324 70.0303 62.8515 64.9123 67.9677C59.7943 73.0838 53.274 76.5673 46.1761 77.9776C39.0782 79.3878 31.7214 78.6614 25.0364 75.8903C18.3513 73.1191 12.6382 68.4277 8.61954 62.4094C4.60094 56.3911 2.45736 49.3162 2.45994 42.0795C2.45994 37.2755 3.40637 32.5186 5.24517 28.0804C7.08397 23.6423 9.77912 19.6099 13.1767 16.2136C16.5742 12.8172 20.6076 10.1235 25.0464 8.28629C29.4852 6.44907 34.2424 5.50433 39.0464 5.50604ZM39.0464 3.07214C31.3238 3.07214 23.7745 5.36218 17.3534 9.65265C10.9323 13.9431 5.92758 20.0413 2.97225 27.1761C0.0169183 34.3109 -0.756331 42.1619 0.750283 49.7361C2.2569 57.3104 5.9757 64.2678 11.4364 69.7285C16.8972 75.1892 23.8546 78.9081 31.4288 80.4147C39.0031 81.9213 46.854 81.148 53.9888 78.1927C61.1236 75.2374 67.2218 70.2327 71.5123 63.8116C75.8028 57.3904 78.0928 49.8412 78.0928 42.1185C78.0928 31.7628 73.979 21.8312 66.6564 14.5086C59.3338 7.18595 49.4022 3.07214 39.0464 3.07214Z" fill="#89AD07"/>
<path d="M39.0466 70.0623C33.5115 70.0649 28.0999 68.4259 23.4964 65.3526C18.8928 62.2794 15.3041 57.9099 13.1841 52.7968C11.0642 47.6838 10.5081 42.0569 11.5864 36.6278C12.6647 31.1987 15.3288 26.2114 19.2418 22.2965C23.1548 18.3817 28.1409 15.7153 33.5695 14.6345C38.9981 13.5537 44.6253 14.1071 49.7393 16.2247C54.8533 18.3423 59.2245 21.929 62.2999 26.5311C65.3753 31.1332 67.0168 36.544 67.0168 42.0791C67.0099 49.4963 64.0613 56.608 58.8177 61.854C53.5741 67.1 46.4638 70.052 39.0466 70.0623Z" fill="#0ED4FF"/>
<path d="M39.0466 70.0623C33.5115 70.0649 28.0999 68.4259 23.4964 65.3526C18.8928 62.2794 15.3041 57.9099 13.1841 52.7968C11.0642 47.6838 10.5081 42.0569 11.5864 36.6278C12.6647 31.1987 15.3288 26.2114 19.2418 22.2965C23.1548 18.3817 28.1409 15.7153 33.5695 14.6345C38.9981 13.5537 44.6253 14.1071 49.7393 16.2247C54.8533 18.3423 59.2245 21.929 62.2999 26.5311C65.3753 31.1332 67.0168 36.544 67.0168 42.0791C67.0099 49.4963 64.0613 56.608 58.8177 61.854C53.5741 67.1 46.4638 70.052 39.0466 70.0623ZM39.0466 16.5297C33.9903 16.5297 29.0475 18.0293 24.8435 20.8387C20.6395 23.6481 17.3631 27.6411 15.4288 32.3128C13.4944 36.9845 12.9889 42.1249 13.9763 47.0839C14.9637 52.0428 17.3996 56.5976 20.9759 60.172C24.5521 63.7465 29.1081 66.18 34.0676 67.1649C39.0271 68.1497 44.1672 67.6417 48.8379 65.7049C53.5086 63.7682 57.5 60.4897 60.3072 56.2843C63.1145 52.0789 64.6115 47.1354 64.6089 42.0791C64.6021 35.3028 61.9062 28.8063 57.1135 24.016C52.3207 19.2257 45.8228 16.5332 39.0466 16.5297Z" fill="#0ABACC"/>
<path d="M39.0466 72.4831C33.0326 72.4856 27.153 70.7047 22.1514 67.3654C17.1497 64.0261 13.2507 59.2785 10.9475 53.7231C8.64431 48.1677 8.04035 42.0541 9.21203 36.1554C10.3837 30.2567 13.2784 24.838 17.53 20.5846C21.7815 16.3312 27.199 13.4342 33.0972 12.26C38.9954 11.0858 45.1093 11.6871 50.6657 13.9879C56.2221 16.2888 60.9713 20.1857 64.3127 25.186C67.6542 30.1862 69.4377 36.065 69.4377 42.0789C69.4308 50.1383 66.2271 57.8657 60.5295 63.5657C54.8319 69.2657 47.1059 72.4727 39.0466 72.4831ZM39.0466 14.0957C33.5114 14.0931 28.0999 15.7321 23.4963 18.8054C18.8928 21.8787 15.3041 26.2481 13.1841 31.3612C11.0641 36.4742 10.5081 42.1011 11.5864 47.5302C12.6647 52.9593 15.3288 57.9467 19.2418 61.8615C23.1548 65.7763 28.1409 68.4428 33.5695 69.5236C38.9981 70.6043 44.6252 70.0509 49.7393 67.9333C54.8533 65.8157 59.2244 62.2291 62.2999 57.627C65.3753 53.0249 67.0168 47.6141 67.0168 42.0789C67.0099 34.6617 64.0612 27.55 58.8177 22.304C53.5741 17.058 46.4638 14.106 39.0466 14.0957Z" fill="#0ABACC"/>
<path d="M39.0465 59.9754C35.5064 59.978 32.0451 58.9306 29.1003 56.9657C26.1556 55.0008 23.8597 52.2066 22.5032 48.9368C21.1467 45.6669 20.7904 42.0681 21.4795 38.5957C22.1686 35.1233 23.872 31.9333 26.3743 29.4292C28.8766 26.925 32.0654 25.2193 35.5373 24.5277C39.0092 23.8361 42.6082 24.1898 45.8791 25.5439C49.15 26.898 51.9457 29.1918 53.9128 32.1351C55.8798 35.0785 56.9297 38.539 56.9297 42.0791C56.9229 46.8211 55.037 51.3672 51.6851 54.7215C48.3332 58.0758 43.7885 59.9651 39.0465 59.9754Z" fill="#C0FF0E"/>
<path d="M39.0465 25.3937C42.3466 25.3937 45.5726 26.3723 48.3166 28.2058C51.0606 30.0393 53.1992 32.6452 54.4622 35.6942C55.7251 38.7431 56.0555 42.0981 55.4117 45.3348C54.7679 48.5715 53.1787 51.5447 50.8451 53.8782C48.5116 56.2118 45.5384 57.8009 42.3017 58.4448C39.065 59.0886 35.71 58.7582 32.6611 57.4953C29.6121 56.2323 27.0062 54.0937 25.1727 51.3497C23.3392 48.6057 22.3606 45.3797 22.3606 42.0796C22.3606 37.6542 24.1186 33.4101 27.2478 30.2809C30.377 27.1517 34.6211 25.3937 39.0465 25.3937ZM39.0465 22.9728C35.2653 22.9625 31.5661 24.0744 28.4172 26.1676C25.2683 28.2608 22.8112 31.2412 21.3571 34.7316C19.903 38.222 19.5172 42.0653 20.2485 45.7751C20.9799 49.4848 22.7955 52.8942 25.4655 55.5715C28.1355 58.2488 31.5399 60.0738 35.2477 60.8152C38.9554 61.5567 42.7998 61.1814 46.2941 59.7368C49.7885 58.2922 52.7756 55.8433 54.8774 52.7001C56.9792 49.5569 58.1011 45.8607 58.1011 42.0796C58.0943 37.0232 56.0862 32.1752 52.5157 28.595C48.9453 25.0148 44.1027 22.9935 39.0465 22.9728Z" fill="#89AD07"/>
<path d="M39.0464 50.0578C37.4684 50.0578 35.9258 49.5899 34.6137 48.7132C33.3017 47.8365 32.2791 46.5904 31.6752 45.1325C31.0713 43.6747 30.9133 42.0705 31.2212 40.5228C31.529 38.9751 32.2889 37.5535 33.4047 36.4377C34.5205 35.3219 35.9422 34.562 37.4898 34.2541C39.0375 33.9463 40.6417 34.1043 42.0996 34.7082C43.5575 35.312 44.8035 36.3347 45.6802 37.6467C46.5569 38.9588 47.0248 40.5013 47.0248 42.0793C47.0214 44.1943 46.1797 46.2216 44.6842 47.7171C43.1887 49.2127 41.1613 50.0543 39.0464 50.0578Z" fill="#89AD07"/>
<path d="M39.0463 35.3116C40.3844 35.3142 41.6916 35.7133 42.8029 36.4586C43.9142 37.2038 44.7796 38.2617 45.2899 39.4987C45.8002 40.7356 45.9323 42.096 45.6697 43.408C45.4071 44.72 44.7615 45.9247 43.8145 46.87C42.8674 47.8152 41.6614 48.4585 40.3489 48.7186C39.0364 48.9787 37.6763 48.8439 36.4403 48.3313C35.2044 47.8186 34.1481 46.9511 33.405 45.8384C32.6619 44.7257 32.2653 43.4177 32.2653 42.0797C32.2636 41.1893 32.4379 40.3074 32.7782 39.4846C33.1185 38.6618 33.6182 37.9145 34.2484 37.2855C34.8786 36.6565 35.6269 36.1583 36.4503 35.8196C37.2737 35.4808 38.156 35.3082 39.0463 35.3116ZM39.0463 32.8907C37.229 32.8907 35.4524 33.4297 33.9413 34.4394C32.4301 35.449 31.2524 36.8842 30.5569 38.5632C29.8614 40.2423 29.6794 42.0899 30.034 43.8723C30.3885 45.6548 31.2637 47.2921 32.5488 48.5772C33.8339 49.8623 35.4712 50.7375 37.2537 51.092C39.0362 51.4466 40.8837 51.2646 42.5628 50.5691C44.2418 49.8736 45.677 48.6959 46.6867 47.1848C47.6963 45.6736 48.2353 43.8971 48.2353 42.0797C48.2318 39.6437 47.2626 37.3084 45.5401 35.5859C43.8176 33.8634 41.4823 32.8942 39.0463 32.8907Z" fill="#89AD07"/>
<path d="M76.5697 15.5021H76.2834L71.728 14.4088C71.4797 14.3493 71.2566 14.2127 71.0906 14.0186C70.9247 13.8246 70.8243 13.5831 70.8039 13.3286L70.4264 8.64298C70.4088 8.45272 70.4375 8.26102 70.51 8.08424C70.5825 7.90746 70.6968 7.75085 70.8429 7.62777L77.9624 1.54955C78.1822 1.35724 78.4642 1.25092 78.7563 1.2502C78.8857 1.23057 79.0174 1.23057 79.1468 1.2502C79.3467 1.32033 79.5249 1.44116 79.6641 1.60087C79.8033 1.76057 79.8986 1.95368 79.9407 2.16128L80.6826 5.75355L84.1187 7.0551C84.3115 7.1361 84.482 7.26237 84.6157 7.42323C84.7493 7.58409 84.8423 7.77479 84.8866 7.97919C84.9251 8.18675 84.9081 8.40081 84.8373 8.59966C84.7664 8.79852 84.6442 8.97511 84.4831 9.11154L77.3637 15.2028C77.1399 15.3884 76.8604 15.4938 76.5697 15.5021Z" fill="#0ED4FF"/>
<path d="M86.0843 7.78328C86.0089 7.36912 85.8279 6.98142 85.5589 6.65766C85.2898 6.33389 84.9418 6.08501 84.5484 5.93508L81.7371 4.88082L81.1254 1.93933C81.0403 1.52599 80.8491 1.14189 80.5707 0.824713C80.2924 0.507539 79.9363 0.268199 79.5375 0.130183C79.2864 0.0428102 79.0224 -0.00120595 78.7566 2.51261e-05C78.1787 0.00211781 77.6205 0.209731 77.1817 0.585722L70.0622 6.66395C69.7682 6.91217 69.5379 7.22725 69.3907 7.58278C69.2435 7.93832 69.1837 8.32395 69.2162 8.70737L69.5937 13.3799C69.6126 13.5447 69.652 13.7064 69.7108 13.8615L38.2394 41.194C37.9982 41.4048 37.8505 41.7027 37.8285 42.0223C37.8066 42.3419 37.9122 42.6571 38.1223 42.899C38.2406 43.0267 38.3834 43.1294 38.5421 43.2009C38.7009 43.2724 38.8723 43.3114 39.0464 43.3155C39.3559 43.32 39.6549 43.2033 39.8794 42.9901L71.4939 15.5535L76.0493 16.6468C76.2354 16.666 76.4229 16.666 76.609 16.6468C77.1879 16.6506 77.7481 16.4422 78.1839 16.0611L85.3033 9.98289C85.6064 9.71031 85.8366 9.36633 85.973 8.9822C86.1094 8.59806 86.1476 8.18595 86.0843 7.78328ZM76.57 14.291L73.7196 13.6012C73.8409 13.4966 73.9403 13.369 74.0119 13.2257C74.0836 13.0825 74.1261 12.9264 74.137 12.7666C74.1479 12.6068 74.1269 12.4465 74.0754 12.2948C74.0239 12.1431 73.9427 12.0032 73.8367 11.8831C73.7333 11.7622 73.6068 11.6631 73.4647 11.5916C73.3225 11.5202 73.1675 11.4777 73.0088 11.4668C72.85 11.4559 72.6907 11.4768 72.5401 11.5281C72.3895 11.5795 72.2507 11.6604 72.1317 11.766L71.9104 11.9612L71.6371 8.52516L78.7566 2.43392L79.6286 6.68998L83.6894 8.23882L76.57 14.291Z" fill="#0ABACC"/>
</svg>
