<svg width="82" height="71" viewBox="0 0 82 71" fill="none" xmlns="http://www.w3.org/2000/svg">
<path fill-rule="evenodd" clip-rule="evenodd" d="M69.5323 66.3451V66.3369L69.6067 66.1618L82 4.58252V4.38703C82 2.85162 81.4215 1.5117 80.1734 0.709382C79.0783 0.00480437 77.8179 -0.0440677 76.9336 0.0210955C76.1104 0.0944695 75.2981 0.258397 74.5119 0.509819C74.1767 0.616341 73.8458 0.735901 73.5201 0.868217L73.4664 0.888581L4.37112 27.6014L4.35046 27.6096C4.14039 27.6803 3.93478 27.7632 3.73472 27.858C3.24332 28.0756 2.77185 28.3345 2.32554 28.6318C1.43705 29.2346 -0.253139 30.6519 0.0320032 32.9C0.267555 34.7653 1.56929 35.9464 2.44951 36.5614C2.96907 36.9202 3.52766 37.2207 4.11491 37.4574L4.24715 37.5144L4.28847 37.5266L4.3174 37.5388L16.4091 41.5504C16.3677 42.2957 16.4421 43.0573 16.6446 43.8108L22.6987 66.451C23.0295 67.6851 23.7441 68.7861 24.7423 69.5994C25.7406 70.4127 26.9722 70.8974 28.2643 70.9854C29.5563 71.0735 30.844 70.7605 31.9463 70.0904C33.0486 69.4203 33.9102 68.4267 34.4102 67.2492L43.8654 57.2874L60.1019 69.5543L60.3333 69.6521C61.8086 70.2874 63.1848 70.487 64.4452 70.32C65.7056 70.149 66.7057 69.6277 67.4578 69.0371C68.3277 68.342 69.021 67.4565 69.4827 66.451L69.5157 66.3817L69.5281 66.3573L69.5323 66.3451ZM22.6367 42.255C22.5697 42.0038 22.5856 41.7381 22.6822 41.4964C22.7788 41.2547 22.9511 41.0497 23.174 40.911L64.1724 15.253C64.1724 15.253 66.5858 13.8072 66.499 15.253C66.499 15.253 66.9288 15.5055 65.6353 16.6907C64.4121 17.8188 36.4145 44.4584 33.5796 47.1545C33.422 47.3053 33.3115 47.4976 33.2614 47.7084L28.6908 64.8952L22.6367 42.255Z" fill="white"/>
</svg>
