<svg width="75" height="97" viewBox="0 0 75 97" fill="none" xmlns="http://www.w3.org/2000/svg">
<path d="M26.4389 21.5556C26.4389 20.1263 27.0073 18.7556 28.0192 17.745C29.0311 16.7344 30.4035 16.1667 31.8345 16.1667C33.2656 16.1667 34.638 16.7344 35.6499 17.745C36.6617 18.7556 37.2302 20.1263 37.2302 21.5556V45.6439L43.759 46.3444L70.4137 58.1461C73.2734 59.4394 75 62.2956 75 65.4211V88.9167C74.8381 93.3356 71.3309 96.8383 66.9065 97H31.8345C29.7842 97 27.8417 96.1917 26.4389 94.6828L0 72.0494L3.99281 67.9C5.01799 66.7683 6.47482 66.1756 7.98561 66.1756H9.17266L26.4389 75.4444V21.5556ZM21.0432 40.0933V21.5556C21.0432 18.6971 22.1801 15.9557 24.2039 13.9345C26.2277 11.9133 28.9725 10.7778 31.8345 10.7778C34.6966 10.7778 37.4414 11.9133 39.4652 13.9345C41.489 15.9557 42.6259 18.6971 42.6259 21.5556V40.0933C49.0468 36.375 53.4173 29.4772 53.4173 21.5556C53.4173 15.8387 51.1434 10.3559 47.0958 6.31348C43.0483 2.27102 37.5586 0 31.8345 0C26.1104 0 20.6208 2.27102 16.5732 6.31348C12.5257 10.3559 10.2518 15.8387 10.2518 21.5556C10.2518 29.4772 14.6223 36.375 21.0432 40.0933Z" fill="white"/>
</svg>
