<svg width="74" height="81" viewBox="0 0 74 81" fill="none" xmlns="http://www.w3.org/2000/svg">
<path d="M72.8214 27.736L59.3764 16.1522L72.9385 4.43827C73.0137 4.38023 73.0682 4.29954 73.094 4.20813C73.1198 4.11672 73.1155 4.01944 73.0817 3.93067C73.0457 3.84266 72.9845 3.76727 72.9058 3.714C72.827 3.66073 72.7343 3.63196 72.6392 3.63132H30.2088V0.442526C30.2088 0.325161 30.1622 0.212601 30.0792 0.129611C29.9962 0.0466218 29.8836 0 29.7663 0C29.6489 0 29.5363 0.0466218 29.4533 0.129611C29.3703 0.212601 29.3237 0.325161 29.3237 0.442526V79.5635C29.3237 79.6809 29.3703 79.7935 29.4533 79.8764C29.5363 79.9594 29.6489 80.0061 29.7663 80.0061C29.8836 80.0061 29.9962 79.9594 30.0792 79.8764C30.1622 79.7935 30.2088 79.6809 30.2088 79.5635V28.5689H72.6002C72.7155 28.5627 72.8245 28.5141 72.9061 28.4324C72.9878 28.3507 73.0364 28.2418 73.0427 28.1264C73.0403 28.0483 73.0189 27.9719 72.9803 27.9038C72.9418 27.8358 72.8872 27.7782 72.8214 27.736Z" fill="#0ED4FF"/>
<path d="M59.1815 50.1352L51.5675 43.5364L59.2856 36.8985C59.329 36.8635 59.3599 36.8156 59.374 36.7617C59.388 36.7078 59.3844 36.6508 59.3637 36.5991C59.3415 36.5524 59.3065 36.5128 59.2627 36.4852C59.2189 36.4575 59.1682 36.4429 59.1164 36.443H34.9077V34.5948C34.9163 34.5566 34.9163 34.5171 34.9076 34.4789C34.8989 34.4408 34.8817 34.4052 34.8574 34.3746C34.833 34.344 34.802 34.3193 34.7668 34.3024C34.7316 34.2854 34.693 34.2766 34.6539 34.2766C34.6148 34.2766 34.5762 34.2854 34.5409 34.3024C34.5057 34.3193 34.4748 34.344 34.4504 34.3746C34.426 34.4052 34.4088 34.4408 34.4001 34.4789C34.3914 34.5171 34.3914 34.5566 34.4001 34.5948V79.6543C34.4132 79.7118 34.4454 79.7632 34.4915 79.8C34.5376 79.8367 34.5949 79.8568 34.6539 79.8568C34.7128 79.8568 34.7701 79.8367 34.8162 79.8C34.8623 79.7632 34.8946 79.7118 34.9077 79.6543V50.6949H59.0514C59.1171 50.6887 59.1783 50.6589 59.2237 50.611C59.2692 50.5632 59.2958 50.5005 59.2986 50.4346C59.3113 50.3787 59.3069 50.3203 59.286 50.2669C59.2652 50.2135 59.2287 50.1677 59.1815 50.1352Z" fill="#C0FF0E"/>
<path d="M24.8856 50.1998L17.1804 43.575L24.9897 36.9111C25.03 36.8739 25.0588 36.8259 25.0726 36.7728C25.0865 36.7198 25.0848 36.6638 25.0678 36.6117C25.044 36.5624 25.0072 36.5205 24.9613 36.4907C24.9154 36.4609 24.8622 36.4442 24.8075 36.4425H0.520616V34.5943C0.520616 34.5253 0.49319 34.459 0.444373 34.4102C0.395556 34.3614 0.329349 34.334 0.26031 34.334C0.191272 34.334 0.12506 34.3614 0.0762426 34.4102C0.0274252 34.459 1.646e-08 34.5253 0 34.5943V79.8491C1.646e-08 79.9181 0.0274252 79.9843 0.0762426 80.0331C0.12506 80.0819 0.191272 80.1094 0.26031 80.1094C0.329349 80.1094 0.395556 80.0819 0.444373 80.0331C0.49319 79.9843 0.520616 79.9181 0.520616 79.8491V50.6944H24.7554C24.8225 50.6886 24.8853 50.6593 24.9329 50.6116C24.9805 50.564 25.0099 50.5012 25.0157 50.4341C25.0157 50.33 24.9767 50.2909 24.8856 50.1998Z" fill="#C0FF0E"/>
</svg>
