<svg width="73" height="58" viewBox="0 0 73 58" fill="none" xmlns="http://www.w3.org/2000/svg">
<path d="M67.0945 1.15027e-05L5.91377 1.15027e-05C1.24844 1.15027e-05 -1.58618 4.97377 0.953171 8.80414L31.5435 55.3403C32.0761 56.155 32.813 56.8261 33.6854 57.2911C34.5579 57.7561 35.5377 58 36.5337 58C37.5296 58 38.5094 57.7561 39.3819 57.2911C40.2544 56.8261 40.9912 56.155 41.5238 55.3403L72.0551 8.80414C72.6312 7.94184 72.9562 6.945 72.9959 5.91877C73.0355 4.89254 72.7883 3.87498 72.2804 2.97343C71.7724 2.07188 71.0225 1.31976 70.1098 0.796431C69.197 0.273098 68.1553 -0.0020503 67.0945 1.15027e-05Z" fill="white"/>
</svg>
